<svg width="30" height="23" viewBox="0 0 30 23" fill="none" xmlns="http://www.w3.org/2000/svg">
<path d="M27 0H3C2.20695 0.00380007 1.44774 0.308378 0.88837 0.847133C0.329001 1.38589 0.0149901 2.11499 0.015 2.875L0 20.125C0.00237409 20.8868 0.319207 21.6167 0.881302 22.1554C1.4434 22.6941 2.20508 22.9977 3 23H27C27.7949 22.9977 28.5566 22.6941 29.1187 22.1554C29.6808 21.6167 29.9976 20.8868 30 20.125V2.875C29.9976 2.1132 29.6808 1.38326 29.1187 0.844581C28.5566 0.305907 27.7949 0.00227517 27 0ZM27 5.75L15 12.9375L3 5.75V2.875L15 10.0625L27 2.875V5.75Z" fill="#848FF2"/>
</svg>
