<svg width="30" height="24" viewBox="0 0 30 24" fill="none" xmlns="http://www.w3.org/2000/svg">
<path d="M20.4546 10.2853C21.2637 10.2853 22.0546 9.98372 22.7273 9.41864C23.4 8.85356 23.9244 8.05038 24.234 7.11068C24.5436 6.17098 24.6246 5.13696 24.4668 4.13938C24.3089 3.14181 23.9193 2.22547 23.3472 1.50625C22.7751 0.78704 22.0462 0.297248 21.2527 0.0988171C20.4592 -0.0996138 19.6367 0.00222854 18.8892 0.391465C18.1417 0.780701 17.5028 1.43985 17.0533 2.28556C16.6038 3.13126 16.3639 4.12555 16.3639 5.14267C16.3617 5.8188 16.466 6.48881 16.6707 7.11402C16.8755 7.73923 17.1768 8.30727 17.5571 8.78537C17.9374 9.26348 18.3892 9.64218 18.8865 9.89962C19.3839 10.1571 19.9168 10.2882 20.4546 10.2853ZM9.54536 10.2853C10.3544 10.2853 11.1453 9.98372 11.818 9.41864C12.4908 8.85356 13.0151 8.05038 13.3247 7.11068C13.6343 6.17098 13.7153 5.13696 13.5575 4.13938C13.3996 3.14181 13.01 2.22547 12.4379 1.50625C11.8658 0.78704 11.1369 0.297248 10.3434 0.0988171C9.5499 -0.0996138 8.72739 0.00222854 7.97991 0.391465C7.23243 0.780701 6.59355 1.43985 6.14405 2.28556C5.69456 3.13126 5.45464 4.12555 5.45464 5.14267C5.4524 5.8188 5.55667 6.48881 5.76146 7.11402C5.96624 7.73923 6.26747 8.30727 6.64778 8.78537C7.02809 9.26348 7.47993 9.64218 7.97726 9.89962C8.47458 10.1571 9.00753 10.2882 9.54536 10.2853ZM9.54536 13.7133C6.36357 13.7133 0 15.7133 0 19.7133V24H19.0907V19.7147C19.0907 15.72 12.7271 13.7147 9.54536 13.7147V13.7133ZM20.4546 13.7133C20.059 13.7133 19.6062 13.748 19.1321 13.7987C19.9317 14.4315 20.5951 15.3022 21.0636 16.3337C21.5321 17.3652 21.7914 18.526 21.8186 19.7133V24H30V19.7147C30 15.72 23.6311 13.7147 20.4546 13.7147V13.7133Z" fill="#848FF2"/>
</svg>
