<svg width="30" height="28" viewBox="0 0 30 28" fill="none" xmlns="http://www.w3.org/2000/svg">
<path d="M27 5.89475H21V2.94738C21.0014 2.55995 20.9247 2.17607 20.7745 1.81786C20.6242 1.45966 20.4033 1.1342 20.1244 0.860242C19.8456 0.586282 19.5143 0.369232 19.1497 0.221596C18.7851 0.0739602 18.3944 -0.00134501 18 1.81816e-05H12C11.6056 -0.00134501 11.2149 0.0739602 10.8503 0.221596C10.4857 0.369232 10.1544 0.586282 9.87559 0.860242C9.59674 1.1342 9.37582 1.45966 9.22554 1.81786C9.07527 2.17607 8.99862 2.55995 9.00001 2.94738V5.89475H3.00001C2.60647 5.89376 2.21664 5.96943 1.85305 6.11739C1.48946 6.26534 1.15933 6.48264 0.881752 6.75672C0.604173 7.0308 0.384652 7.35622 0.235882 7.71417C0.0871112 8.07211 0.0120433 8.45548 0.0150185 8.84211L1.85063e-05 25.0526C-0.00136903 25.4401 0.0752809 25.8239 0.225553 26.1821C0.375826 26.5403 0.596751 26.8658 0.875603 27.1398C1.15446 27.4137 1.48572 27.6308 1.85033 27.7784C2.21493 27.926 2.60566 28.0013 3.00001 28H27C27.3943 28.0013 27.7851 27.926 28.1497 27.7784C28.5143 27.6308 28.8455 27.4137 29.1244 27.1398C29.4032 26.8658 29.6242 26.5403 29.7744 26.1821C29.9247 25.8239 30.0014 25.4401 30 25.0526V8.84211C30.0014 8.45468 29.9247 8.0708 29.7744 7.71259C29.6242 7.35439 29.4032 7.02893 29.1244 6.75497C28.8455 6.48101 28.5143 6.26396 28.1497 6.11633C27.7851 5.96869 27.3943 5.89338 27 5.89475ZM18 5.89475H12V2.94738H18V5.89475Z" fill="#848FF2"/>
</svg>
