<svg width="72" height="70" viewBox="0 0 72 70" fill="none" xmlns="http://www.w3.org/2000/svg">
<g clip-path="url(#clip0_154_120)">
<path d="M36 0C28.8799 0 21.9197 2.05271 15.9995 5.89856C10.0793 9.74441 5.46511 15.2107 2.74035 21.6061C0.0155982 28.0015 -0.697322 35.0388 0.691746 41.8282C2.08081 48.6175 5.50948 54.8539 10.5442 59.7487C15.5789 64.6436 21.9935 67.977 28.9768 69.3275C35.9601 70.678 43.1985 69.9849 49.7766 67.3358C56.3548 64.6867 61.9772 60.2007 65.9329 54.445C69.8886 48.6892 72 41.9223 72 35C72 30.4037 71.0689 25.8525 69.2597 21.6061C67.4505 17.3597 64.7988 13.5013 61.4559 10.2513C58.1129 7.00121 54.1443 4.42313 49.7766 2.66422C45.4089 0.905302 40.7276 0 36 0ZM32.4 62.755C25.441 61.9117 19.0388 58.6252 14.3978 53.5137C9.75689 48.4022 7.19709 41.8181 7.20002 35C7.21206 32.8909 7.46562 30.7896 7.95602 28.735L25.2 45.5V49C25.2057 50.8548 25.9661 52.6321 27.3151 53.9436C28.6642 55.2552 30.4922 55.9945 32.4 56V62.755ZM57.24 53.865C56.7835 52.4504 55.8732 51.215 54.6424 50.3396C53.4116 49.4642 51.925 48.9948 50.4 49H46.8V38.5C46.8 37.5717 46.4207 36.6815 45.7456 36.0251C45.0705 35.3688 44.1548 35 43.2 35H21.6V28H28.8C29.7548 28 30.6705 27.6313 31.3456 26.9749C32.0207 26.3185 32.4 25.4283 32.4 24.5V17.5H39.6C41.5078 17.4945 43.3359 16.7552 44.6849 15.4436C46.0339 14.1321 46.7943 12.3548 46.8 10.5V9.065C51.1085 10.752 54.9322 13.4292 57.9434 16.8674C60.9547 20.3056 63.0638 24.4022 64.0902 28.8063C65.1165 33.2105 65.0294 37.7908 63.8364 42.1551C62.6433 46.5193 60.3799 50.5374 57.24 53.865Z" fill="#047B4A"/>
</g>
<defs>
<clipPath id="clip0_154_120">
<rect width="72" height="70" fill="white"/>
</clipPath>
</defs>
</svg>
